<svg xmlns="http://www.w3.org/2000/svg" version="1.1" xmlns:xlink="http://www.w3.org/1999/xlink" xmlns:svgjs="http://svgjs.dev/svgjs" width="1000" height="623" viewBox="0 0 1000 623"><g transform="matrix(1,0,0,1,-0.6060606060606233,0.2522267206477409)"><svg viewBox="0 0 396 247" data-background-color="#f8f8f8" preserveAspectRatio="xMidYMid meet" height="623" width="1000" xmlns="http://www.w3.org/2000/svg" xmlns:xlink="http://www.w3.org/1999/xlink"><defs></defs><g id="tight-bounds" transform="matrix(1,0,0,1,0.2400000000000091,-0.09999999999999432)"><svg viewBox="0 0 395.52 247.2" height="247.2" width="395.52"><g><svg></svg></g><g><svg viewBox="0 0 395.52 247.2" height="247.2" width="395.52"><g transform="matrix(1,0,0,1,75.54432,105.16327781222233)"><svg viewBox="0 0 244.43135999999998 36.87344437555533" height="36.87344437555533" width="244.43135999999998"><g><svg viewBox="0 0 244.43135999999998 36.87344437555533" height="36.87344437555533" width="244.43135999999998"><g><svg viewBox="0 0 244.43135999999998 36.87344437555533" height="36.87344437555533" width="244.43135999999998"><g><svg viewBox="0 0 244.43135999999998 36.87344437555533" height="36.87344437555533" width="244.43135999999998"><g><svg viewBox="0 0 244.43135999999998 36.87344437555533" height="36.87344437555533" width="244.43135999999998"><g><svg viewBox="0 0 244.43135999999998 36.87344437555533" height="36.87344437555533" width="244.43135999999998"><g transform="matrix(1,0,0,1,0,0)"><svg width="244.43135999999998" viewBox="3.25 -36.54999923706055 247.25999450683594 37.30999755859375" height="36.87344437555533" data-palette-color="#61777f"><path d="M27.25-7.01L27.25 0 3.25 0 3.25-35.01 27.25-35.01 27.25-28 10.25-28 10.25-21 21.75-21 21.75-13.99 10.25-13.99 10.25-7.01 27.25-7.01ZM73.99-17.36L73.99-3.54Q71.55-1.46 68.55-0.35 65.55 0.76 62.3 0.76L62.3 0.76Q59.81 0.76 57.5 0.11 55.2-0.54 53.19-1.72 51.19-2.91 49.53-4.55 47.87-6.2 46.7-8.22 45.53-10.23 44.88-12.55 44.23-14.87 44.23-17.36L44.23-17.36Q44.23-19.85 44.88-22.14 45.53-24.44 46.7-26.45 47.87-28.47 49.53-30.11 51.19-31.76 53.19-32.93 55.2-34.11 57.5-34.75 59.81-35.4 62.3-35.4L62.3-35.4Q65.55-35.4 68.55-34.29 71.55-33.18 73.99-31.1L73.99-31.1 70.33-25Q68.75-26.61 66.67-27.53 64.59-28.44 62.3-28.44L62.3-28.44Q60-28.44 57.99-27.56 55.98-26.68 54.46-25.18 52.95-23.68 52.07-21.67 51.19-19.65 51.19-17.36L51.19-17.36Q51.19-15.04 52.07-13.01 52.95-10.99 54.46-9.47 55.98-7.96 57.99-7.08 60-6.2 62.3-6.2L62.3-6.2Q63.62-6.2 64.86-6.52 66.11-6.84 67.23-7.4L67.23-7.4 67.23-17.36 73.99-17.36ZM103.95-13.31L103.95-13.31Q103.95-10.38 102.9-7.85 101.85-5.32 100.04-3.48 98.23-1.64 95.81-0.57 93.38 0.49 90.59 0.49L90.59 0.49Q87.83 0.49 85.41-0.57 82.98-1.64 81.16-3.48 79.34-5.32 78.29-7.85 77.24-10.38 77.24-13.31L77.24-13.31Q77.24-16.28 78.29-18.82 79.34-21.36 81.16-23.21 82.98-25.05 85.41-26.1 87.83-27.15 90.59-27.15L90.59-27.15Q93.38-27.15 95.81-26.16 98.23-25.17 100.04-23.35 101.85-21.53 102.9-18.98 103.95-16.43 103.95-13.31ZM97.23-13.31L97.23-13.31Q97.23-14.92 96.71-16.22 96.18-17.53 95.28-18.47 94.38-19.41 93.17-19.91 91.96-20.41 90.59-20.41L90.59-20.41Q89.23-20.41 88.02-19.91 86.81-19.41 85.92-18.47 85.03-17.53 84.51-16.22 84-14.92 84-13.31L84-13.31Q84-11.79 84.51-10.5 85.03-9.2 85.92-8.25 86.81-7.3 88.02-6.75 89.23-6.2 90.59-6.2L90.59-6.2Q91.96-6.2 93.17-6.71 94.38-7.23 95.28-8.15 96.18-9.08 96.71-10.4 97.23-11.72 97.23-13.31ZM114.3-14.94L114.3 0 107.63 0 107.63-26.15 109.24-26.15 111.44-23.61Q113.05-25.07 115.09-25.87 117.13-26.66 119.35-26.66L119.35-26.66Q121.74-26.66 123.87-25.74 125.99-24.83 127.58-23.23 129.16-21.63 130.08-19.49 131-17.36 131-14.94L131-14.94 131 0 124.33 0 124.33-14.94Q124.33-15.97 123.94-16.88 123.55-17.8 122.87-18.48 122.18-19.17 121.28-19.56 120.38-19.95 119.35-19.95L119.35-19.95Q118.3-19.95 117.37-19.56 116.45-19.17 115.76-18.48 115.08-17.8 114.69-16.88 114.3-15.97 114.3-14.94L114.3-14.94ZM156.14-6.64L156.14 0 134.34 0 145.35-19.46 134.34-19.46 134.34-26.1 156.14-26.1 145.13-6.64 156.14-6.64ZM184.75-26.1L184.75 0 183.14 0 180.55-3.59Q179.6-2.73 178.54-1.99 177.48-1.25 176.3-0.7 175.13-0.15 173.9 0.17 172.67 0.49 171.4 0.49L171.4 0.49Q168.64 0.49 166.21-0.44 163.78-1.37 161.96-3.14 160.14-4.91 159.09-7.47 158.04-10.03 158.04-13.31L158.04-13.31Q158.04-16.36 159.09-18.91 160.14-21.46 161.96-23.29 163.78-25.12 166.21-26.14 168.64-27.15 171.4-27.15L171.4-27.15Q172.67-27.15 173.91-26.83 175.16-26.51 176.33-25.95 177.5-25.39 178.56-24.63 179.62-23.88 180.55-23L180.55-23 183.14-26.1 184.75-26.1ZM178.04-13.31L178.04-13.31Q178.04-14.67 177.51-15.95 176.99-17.24 176.08-18.23 175.18-19.21 173.97-19.81 172.76-20.41 171.4-20.41L171.4-20.41Q170.03-20.41 168.82-19.95 167.61-19.48 166.72-18.58 165.83-17.68 165.32-16.35 164.8-15.01 164.8-13.31L164.8-13.31Q164.8-11.6 165.32-10.27 165.83-8.94 166.72-8.03 167.61-7.13 168.82-6.67 170.03-6.2 171.4-6.2L171.4-6.2Q172.76-6.2 173.97-6.8 175.18-7.4 176.08-8.39 176.99-9.38 177.51-10.66 178.04-11.94 178.04-13.31ZM196.54-36.55L196.54 0 189.83 0 189.83-36.55 196.54-36.55ZM224.52-21.46L212.02-6.4Q212.41-6.27 212.8-6.24 213.19-6.2 213.58-6.2L213.58-6.2Q214.56-6.2 215.46-6.47 216.36-6.74 217.16-7.24 217.95-7.74 218.57-8.46 219.19-9.18 219.58-10.06L219.58-10.06 224.47-5.15Q223.54-3.83 222.33-2.78 221.12-1.73 219.72-1 218.31-0.27 216.76 0.11 215.21 0.49 213.58 0.49L213.58 0.49Q210.82 0.49 208.39-0.54 205.96-1.56 204.14-3.39 202.32-5.22 201.27-7.75 200.22-10.28 200.22-13.31L200.22-13.31Q200.22-16.41 201.27-18.97 202.32-21.53 204.14-23.34 205.96-25.15 208.39-26.15 210.82-27.15 213.58-27.15L213.58-27.15Q215.21-27.15 216.78-26.76 218.34-26.37 219.74-25.63 221.15-24.9 222.37-23.84 223.59-22.78 224.52-21.46L224.52-21.46ZM207.67-9.84L215.43-20.14Q214.97-20.31 214.52-20.36 214.07-20.41 213.58-20.41L213.58-20.41Q212.21-20.41 211-19.91 209.79-19.41 208.9-18.48 208.01-17.55 207.5-16.25 206.99-14.94 206.99-13.31L206.99-13.31Q206.99-12.94 207.02-12.48 207.06-12.01 207.15-11.54 207.23-11.06 207.35-10.62 207.48-10.18 207.67-9.84L207.67-9.84ZM242.21 0L242.21 0 226.98 0 226.98-6.64 242.21-6.64Q242.9-6.64 243.39-7.13 243.87-7.62 243.87-8.3L243.87-8.3Q243.87-9.01 243.39-9.23 242.9-9.45 242.21-9.45L242.21-9.45 235.28-9.45Q233.55-9.45 232.03-10.11 230.52-10.77 229.4-11.9 228.27-13.04 227.63-14.55 226.98-16.06 226.98-17.8L226.98-17.8Q226.98-19.53 227.63-21.04 228.27-22.56 229.4-23.68 230.52-24.8 232.03-25.45 233.55-26.1 235.28-26.1L235.28-26.1 248.78-26.1 248.78-19.46 235.28-19.46Q234.6-19.46 234.11-18.97 233.62-18.48 233.62-17.8L233.62-17.8Q233.62-17.09 234.11-16.59 234.6-16.09 235.28-16.09L235.28-16.09 242.21-16.09Q243.92-16.09 245.44-15.52 246.95-14.94 248.07-13.92 249.2-12.89 249.86-11.45 250.51-10.01 250.51-8.3L250.51-8.3Q250.51-6.57 249.86-5.07 249.2-3.56 248.07-2.43 246.95-1.29 245.44-0.65 243.92 0 242.21 0Z" opacity="1" transform="matrix(1,0,0,1,0,0)" fill="#61777f" class="undefined-text-0" data-fill-palette-color="primary" id="text-0"></path></svg></g></svg></g></svg></g></svg></g></svg></g></svg></g></svg></g><g><path d="M151.089 150.742A122.216 122.216 0 1 0 151.089 96.458L154.414 96.458A118.89 118.89 0 1 1 154.414 150.742L151.089 150.742" fill="#61777f" stroke="transparent" data-fill-palette-color="tertiary"></path></g></svg></g></svg><rect width="395.52" height="247.2" fill="none" stroke="none" visibility="hidden"></rect></g></svg></g></svg>